<svg width="25" height="25" viewBox="0 0 25 25" fill="none" xmlns="http://www.w3.org/2000/svg">
<mask id="mask0_39_25" style="mask-type:alpha" maskUnits="userSpaceOnUse" x="0" y="0" width="25" height="25">
<rect x="0.645408" y="0.832245" width="24" height="24" fill="#D9D9D9"/>
</mask>
<g mask="url(#mask0_39_25)">
<path d="M17.6454 23.8322V20.8322H14.6454V18.8322H17.6454V15.8322H19.6454V18.8322H22.6454V20.8322H19.6454V23.8322H17.6454ZM5.64541 21.8322C5.09541 21.8322 4.62457 21.6364 4.23291 21.2447C3.84124 20.8531 3.64541 20.3822 3.64541 19.8322V5.83224C3.64541 5.28224 3.84124 4.81141 4.23291 4.41974C4.62457 4.02808 5.09541 3.83224 5.64541 3.83224H19.6454C20.1954 3.83224 20.6662 4.02808 21.0579 4.41974C21.4496 4.81141 21.6454 5.28224 21.6454 5.83224V14.6572C21.3454 14.4739 21.0287 14.3239 20.6954 14.2072C20.3621 14.0906 20.0121 13.9989 19.6454 13.9322V5.83224H5.64541V19.8322H12.6454C12.6454 20.1822 12.6704 20.5239 12.7204 20.8572C12.7704 21.1906 12.8537 21.5156 12.9704 21.8322H5.64541ZM8.64541 17.8322C8.92874 17.8322 9.16624 17.7364 9.35791 17.5447C9.54957 17.3531 9.64541 17.1156 9.64541 16.8322C9.64541 16.5489 9.54957 16.3114 9.35791 16.1197C9.16624 15.9281 8.92874 15.8322 8.64541 15.8322C8.36207 15.8322 8.12457 15.9281 7.93291 16.1197C7.74124 16.3114 7.64541 16.5489 7.64541 16.8322C7.64541 17.1156 7.74124 17.3531 7.93291 17.5447C8.12457 17.7364 8.36207 17.8322 8.64541 17.8322ZM8.64541 13.8322C8.92874 13.8322 9.16624 13.7364 9.35791 13.5447C9.54957 13.3531 9.64541 13.1156 9.64541 12.8322C9.64541 12.5489 9.54957 12.3114 9.35791 12.1197C9.16624 11.9281 8.92874 11.8322 8.64541 11.8322C8.36207 11.8322 8.12457 11.9281 7.93291 12.1197C7.74124 12.3114 7.64541 12.5489 7.64541 12.8322C7.64541 13.1156 7.74124 13.3531 7.93291 13.5447C8.12457 13.7364 8.36207 13.8322 8.64541 13.8322ZM8.64541 9.83224C8.92874 9.83224 9.16624 9.73641 9.35791 9.54474C9.54957 9.35308 9.64541 9.11558 9.64541 8.83224C9.64541 8.54891 9.54957 8.31141 9.35791 8.11974C9.16624 7.92808 8.92874 7.83224 8.64541 7.83224C8.36207 7.83224 8.12457 7.92808 7.93291 8.11974C7.74124 8.31141 7.64541 8.54891 7.64541 8.83224C7.64541 9.11558 7.74124 9.35308 7.93291 9.54474C8.12457 9.73641 8.36207 9.83224 8.64541 9.83224ZM11.6454 13.8322H17.6454V11.8322H11.6454V13.8322ZM11.6454 9.83224H17.6454V7.83224H11.6454V9.83224ZM11.6454 17.8322H12.9954C13.1287 17.4489 13.2954 17.0906 13.4954 16.7572C13.6954 16.4239 13.9287 16.1156 14.1954 15.8322H11.6454V17.8322Z" fill="#1C1B1F"/>
</g>
</svg>
