<svg width="25" height="25" viewBox="0 0 25 25" fill="none" xmlns="http://www.w3.org/2000/svg">
<mask id="mask0_29_25" style="mask-type:alpha" maskUnits="userSpaceOnUse" x="0" y="0" width="25" height="25">
<rect x="0.716843" y="0.543953" width="24" height="24" fill="#D9D9D9"/>
</mask>
<g mask="url(#mask0_29_25)">
<path d="M5.71684 19.544H7.14184L16.9168 9.76895L15.4918 8.34395L5.71684 18.119V19.544ZM3.71684 21.544V17.294L16.9168 4.11895C17.1168 3.93562 17.3377 3.79395 17.5793 3.69395C17.821 3.59395 18.0752 3.54395 18.3418 3.54395C18.6085 3.54395 18.8668 3.59395 19.1168 3.69395C19.3668 3.79395 19.5835 3.94395 19.7668 4.14395L21.1418 5.54395C21.3418 5.72729 21.4877 5.94395 21.5793 6.19395C21.671 6.44395 21.7168 6.69395 21.7168 6.94395C21.7168 7.21062 21.671 7.46479 21.5793 7.70645C21.4877 7.94812 21.3418 8.16895 21.1418 8.36895L7.96684 21.544H3.71684ZM16.1918 9.06895L15.4918 8.34395L16.9168 9.76895L16.1918 9.06895Z" fill="#1C1B1F"/>
</g>
</svg>
