<svg width="25" height="25" viewBox="0 0 25 25" fill="none" xmlns="http://www.w3.org/2000/svg">
<mask id="mask0_5_36" style="mask-type:alpha" maskUnits="userSpaceOnUse" x="0" y="0" width="25" height="25">
<rect x="0.369169" y="0.634901" width="24" height="24" fill="#D9D9D9"/>
</mask>
<g mask="url(#mask0_5_36)">
<path d="M9.61917 22.6349L9.21917 19.4349C9.0025 19.3516 8.79834 19.2516 8.60667 19.1349C8.415 19.0182 8.2275 18.8932 8.04417 18.7599L5.06917 20.0099L2.31917 15.2599L4.89417 13.3099C4.8775 13.1932 4.86917 13.0807 4.86917 12.9724V12.2974C4.86917 12.1891 4.8775 12.0766 4.89417 11.9599L2.31917 10.0099L5.06917 5.2599L8.04417 6.5099C8.2275 6.37657 8.41917 6.25157 8.61917 6.1349C8.81917 6.01823 9.01917 5.91823 9.21917 5.8349L9.61917 2.6349H15.1192L15.5192 5.8349C15.7358 5.91823 15.94 6.01823 16.1317 6.1349C16.3233 6.25157 16.5108 6.37657 16.6942 6.5099L19.6692 5.2599L22.4192 10.0099L19.8442 11.9599C19.8608 12.0766 19.8692 12.1891 19.8692 12.2974V12.9724C19.8692 13.0807 19.8525 13.1932 19.8192 13.3099L22.3942 15.2599L19.6442 20.0099L16.6942 18.7599C16.5108 18.8932 16.3192 19.0182 16.1192 19.1349C15.9192 19.2516 15.7192 19.3516 15.5192 19.4349L15.1192 22.6349H9.61917ZM11.3692 20.6349H13.3442L13.6942 17.9849C14.2108 17.8516 14.69 17.6557 15.1317 17.3974C15.5733 17.1391 15.9775 16.8266 16.3442 16.4599L18.8192 17.4849L19.7942 15.7849L17.6442 14.1599C17.7275 13.9266 17.7858 13.6807 17.8192 13.4224C17.8525 13.1641 17.8692 12.9016 17.8692 12.6349C17.8692 12.3682 17.8525 12.1057 17.8192 11.8474C17.7858 11.5891 17.7275 11.3432 17.6442 11.1099L19.7942 9.4849L18.8192 7.7849L16.3442 8.8349C15.9775 8.45157 15.5733 8.13073 15.1317 7.8724C14.69 7.61407 14.2108 7.41823 13.6942 7.2849L13.3692 4.6349H11.3942L11.0442 7.2849C10.5275 7.41823 10.0483 7.61407 9.60667 7.8724C9.165 8.13073 8.76084 8.44323 8.39417 8.8099L5.91917 7.7849L4.94417 9.4849L7.09417 11.0849C7.01084 11.3349 6.9525 11.5849 6.91917 11.8349C6.88584 12.0849 6.86917 12.3516 6.86917 12.6349C6.86917 12.9016 6.88584 13.1599 6.91917 13.4099C6.9525 13.6599 7.01084 13.9099 7.09417 14.1599L4.94417 15.7849L5.91917 17.4849L8.39417 16.4349C8.76084 16.8182 9.165 17.1391 9.60667 17.3974C10.0483 17.6557 10.5275 17.8516 11.0442 17.9849L11.3692 20.6349ZM12.4192 16.1349C13.3858 16.1349 14.2108 15.7932 14.8942 15.1099C15.5775 14.4266 15.9192 13.6016 15.9192 12.6349C15.9192 11.6682 15.5775 10.8432 14.8942 10.1599C14.2108 9.47657 13.3858 9.1349 12.4192 9.1349C11.4358 9.1349 10.6067 9.47657 9.93167 10.1599C9.25667 10.8432 8.91917 11.6682 8.91917 12.6349C8.91917 13.6016 9.25667 14.4266 9.93167 15.1099C10.6067 15.7932 11.4358 16.1349 12.4192 16.1349Z" fill="#1C1B1F"/>
</g>
</svg>
