<svg width="24" height="24" viewBox="0 0 24 24" fill="none" xmlns="http://www.w3.org/2000/svg">
<mask id="mask0_46_26" style="mask-type:alpha" maskUnits="userSpaceOnUse" x="0" y="0" width="24" height="24">
<rect width="24" height="24" fill="#D9D9D9"/>
</mask>
<g mask="url(#mask0_46_26)">
<path d="M2 22V4C2 3.45 2.19583 2.97917 2.5875 2.5875C2.97917 2.19583 3.45 2 4 2H20C20.55 2 21.0208 2.19583 21.4125 2.5875C21.8042 2.97917 22 3.45 22 4V16C22 16.55 21.8042 17.0208 21.4125 17.4125C21.0208 17.8042 20.55 18 20 18H6L2 22ZM5.15 16H20V4H4V17.125L5.15 16Z" fill="#1C1B1F"/>
</g>
<mask id="mask1_46_26" style="mask-type:alpha" maskUnits="userSpaceOnUse" x="6" y="4" width="12" height="13">
<rect x="6" y="4.5" width="12" height="12" fill="#D9D9D9"/>
</mask>
<g mask="url(#mask1_46_26)">
<path d="M12 15L11.275 14.35C10.4333 13.5917 9.7375 12.9375 9.1875 12.3875C8.6375 11.8375 8.2 11.3438 7.875 10.9063C7.55 10.4688 7.32292 10.0667 7.19375 9.70001C7.06459 9.33335 7 8.95835 7 8.57501C7 7.79168 7.2625 7.13751 7.7875 6.61251C8.3125 6.08751 8.96667 5.82501 9.75 5.82501C10.1833 5.82501 10.5958 5.91668 10.9875 6.10001C11.3792 6.28335 11.7167 6.54168 12 6.87501C12.2833 6.54168 12.6208 6.28335 13.0125 6.10001C13.4042 5.91668 13.8167 5.82501 14.25 5.82501C15.0333 5.82501 15.6875 6.08751 16.2125 6.61251C16.7375 7.13751 17 7.79168 17 8.57501C17 8.95835 16.9354 9.33335 16.8063 9.70001C16.6771 10.0667 16.45 10.4688 16.125 10.9063C15.8 11.3438 15.3625 11.8375 14.8125 12.3875C14.2625 12.9375 13.5667 13.5917 12.725 14.35L12 15ZM12 13.65C12.8 12.9333 13.4583 12.3188 13.975 11.8063C14.4917 11.2938 14.9 10.8479 15.2 10.4688C15.5 10.0896 15.7083 9.7521 15.825 9.45626C15.9417 9.16043 16 8.86668 16 8.57501C16 8.07501 15.8333 7.65835 15.5 7.32501C15.1667 6.99168 14.75 6.82501 14.25 6.82501C13.8583 6.82501 13.4958 6.93543 13.1625 7.15626C12.8292 7.3771 12.6 7.65835 12.475 8.00001H11.525C11.4 7.65835 11.1708 7.3771 10.8375 7.15626C10.5042 6.93543 10.1417 6.82501 9.75 6.82501C9.25 6.82501 8.83334 6.99168 8.5 7.32501C8.16667 7.65835 8 8.07501 8 8.57501C8 8.86668 8.05834 9.16043 8.175 9.45626C8.29167 9.7521 8.5 10.0896 8.8 10.4688C9.1 10.8479 9.50834 11.2938 10.025 11.8063C10.5417 12.3188 11.2 12.9333 12 13.65Z" fill="#1C1B1F"/>
</g>
</svg>
