<svg width="25" height="25" viewBox="0 0 25 25" fill="none" xmlns="http://www.w3.org/2000/svg">
<mask id="mask0_9_48" style="mask-type:alpha" maskUnits="userSpaceOnUse" x="0" y="0" width="25" height="25">
<rect x="0.288025" y="0.338737" width="24" height="24" fill="#D9D9D9"/>
</mask>
<g mask="url(#mask0_9_48)">
<path d="M6.28802 14.3387C5.73802 14.3387 5.26719 14.1429 4.87552 13.7512C4.48386 13.3596 4.28802 12.8887 4.28802 12.3387C4.28802 11.7887 4.48386 11.3179 4.87552 10.9262C5.26719 10.5346 5.73802 10.3387 6.28802 10.3387C6.83802 10.3387 7.30886 10.5346 7.70053 10.9262C8.09219 11.3179 8.28802 11.7887 8.28802 12.3387C8.28802 12.8887 8.09219 13.3596 7.70053 13.7512C7.30886 14.1429 6.83802 14.3387 6.28802 14.3387ZM12.288 14.3387C11.738 14.3387 11.2672 14.1429 10.8755 13.7512C10.4839 13.3596 10.288 12.8887 10.288 12.3387C10.288 11.7887 10.4839 11.3179 10.8755 10.9262C11.2672 10.5346 11.738 10.3387 12.288 10.3387C12.838 10.3387 13.3089 10.5346 13.7005 10.9262C14.0922 11.3179 14.288 11.7887 14.288 12.3387C14.288 12.8887 14.0922 13.3596 13.7005 13.7512C13.3089 14.1429 12.838 14.3387 12.288 14.3387ZM18.288 14.3387C17.738 14.3387 17.2672 14.1429 16.8755 13.7512C16.4839 13.3596 16.288 12.8887 16.288 12.3387C16.288 11.7887 16.4839 11.3179 16.8755 10.9262C17.2672 10.5346 17.738 10.3387 18.288 10.3387C18.838 10.3387 19.3089 10.5346 19.7005 10.9262C20.0922 11.3179 20.288 11.7887 20.288 12.3387C20.288 12.8887 20.0922 13.3596 19.7005 13.7512C19.3089 14.1429 18.838 14.3387 18.288 14.3387Z" fill="#1C1B1F"/>
</g>
</svg>
