<svg width="25" height="25" viewBox="0 0 25 25" fill="none" xmlns="http://www.w3.org/2000/svg">
<mask id="mask0_19_181" style="mask-type:alpha" maskUnits="userSpaceOnUse" x="0" y="0" width="25" height="25">
<rect x="0.918335" y="0.982673" width="24" height="24" fill="#D9D9D9"/>
</mask>
<g mask="url(#mask0_19_181)">
<path d="M12.9183 21.9827L11.4683 20.6827C9.785 19.166 8.39333 17.8577 7.29333 16.7577C6.19333 15.6577 5.31833 14.6702 4.66833 13.7952C4.01833 12.9202 3.56417 12.116 3.30583 11.3827C3.0475 10.6493 2.91833 9.89934 2.91833 9.13267C2.91833 7.56601 3.44333 6.25767 4.49334 5.20767C5.54334 4.15767 6.85167 3.63267 8.41833 3.63267C9.285 3.63267 10.11 3.81601 10.8933 4.18267C11.6767 4.54934 12.3517 5.06601 12.9183 5.73267C13.485 5.06601 14.16 4.54934 14.9433 4.18267C15.7267 3.81601 16.5517 3.63267 17.4183 3.63267C18.985 3.63267 20.2933 4.15767 21.3433 5.20767C22.3933 6.25767 22.9183 7.56601 22.9183 9.13267C22.9183 9.89934 22.7892 10.6493 22.5308 11.3827C22.2725 12.116 21.8183 12.9202 21.1683 13.7952C20.5183 14.6702 19.6433 15.6577 18.5433 16.7577C17.4433 17.8577 16.0517 19.166 14.3683 20.6827L12.9183 21.9827ZM12.9183 19.2827C14.5183 17.8493 15.835 16.6202 16.8683 15.5952C17.9017 14.5702 18.7183 13.6785 19.3183 12.9202C19.9183 12.1618 20.335 11.4868 20.5683 10.8952C20.8017 10.3035 20.9183 9.71601 20.9183 9.13267C20.9183 8.13267 20.585 7.29934 19.9183 6.63267C19.2517 5.96601 18.4183 5.63267 17.4183 5.63267C16.635 5.63267 15.91 5.85351 15.2433 6.29517C14.5767 6.73684 14.1183 7.29934 13.8683 7.98267H11.9683C11.7183 7.29934 11.26 6.73684 10.5933 6.29517C9.92667 5.85351 9.20167 5.63267 8.41833 5.63267C7.41833 5.63267 6.585 5.96601 5.91833 6.63267C5.25167 7.29934 4.91833 8.13267 4.91833 9.13267C4.91833 9.71601 5.035 10.3035 5.26834 10.8952C5.50167 11.4868 5.91834 12.1618 6.51834 12.9202C7.11834 13.6785 7.935 14.5702 8.96834 15.5952C10.0017 16.6202 11.3183 17.8493 12.9183 19.2827Z" fill="#1C1B1F"/>
</g>
</svg>
