<svg width="65" height="65" viewBox="0 0 65 65" fill="none" xmlns="http://www.w3.org/2000/svg">
<g filter="url(#filter0_d_45_517)">
<path d="M32.0001 26C32.0013 25.6 31.9224 25.2039 31.7683 24.8348C31.6141 24.4657 31.3877 24.1312 31.1023 23.8509C30.817 23.5707 30.4785 23.3503 30.1067 23.2027C29.735 23.0552 29.3375 22.9835 28.9376 22.9918C28.5377 23.0001 28.1435 23.0884 27.7782 23.2513C27.4129 23.4142 27.0839 23.6485 26.8105 23.9404C26.5371 24.2323 26.3248 24.576 26.1861 24.9512C26.0475 25.3263 25.9852 25.7254 26.0031 26.125C25.4153 26.2761 24.8696 26.5591 24.4073 26.9523C23.945 27.3456 23.5783 27.8389 23.3349 28.3948C23.0915 28.9508 22.9778 29.5549 23.0025 30.1613C23.0271 30.7677 23.1894 31.3606 23.4771 31.895C22.9713 32.3059 22.5735 32.8342 22.3184 33.4339C22.0633 34.0336 21.9586 34.6866 22.0134 35.336C22.0682 35.9854 22.2809 36.6116 22.6329 37.16C22.9849 37.7085 23.4655 38.1627 24.0331 38.483C23.963 39.0252 24.0048 39.5761 24.156 40.1015C24.3071 40.627 24.5644 41.1158 24.9119 41.538C25.2593 41.9601 25.6897 42.3065 26.1763 42.5558C26.6629 42.805 27.1955 42.9519 27.7411 42.9873C28.2867 43.0227 28.8337 42.9459 29.3485 42.7616C29.8632 42.5773 30.3347 42.2894 30.7338 41.9158C31.133 41.5421 31.4512 41.0906 31.669 40.5891C31.8868 40.0876 31.9995 39.5467 32.0001 39V26Z" stroke="white" stroke-width="2" stroke-linecap="round" stroke-linejoin="round"/>
<path d="M32 26C31.9988 25.6 32.0776 25.2039 32.2318 24.8348C32.386 24.4657 32.6124 24.1312 32.8977 23.8509C33.1831 23.5707 33.5216 23.3503 33.8934 23.2027C34.2651 23.0552 34.6626 22.9835 35.0625 22.9918C35.4624 23.0001 35.8566 23.0884 36.2219 23.2513C36.5872 23.4142 36.9162 23.6485 37.1896 23.9404C37.463 24.2323 37.6753 24.576 37.814 24.9512C37.9526 25.3263 38.0149 25.7254 37.997 26.125C38.5848 26.2761 39.1305 26.5591 39.5928 26.9523C40.0551 27.3456 40.4218 27.8389 40.6652 28.3948C40.9086 28.9508 41.0223 29.5549 40.9976 30.1613C40.973 30.7677 40.8107 31.3606 40.523 31.895C41.0288 32.3059 41.4266 32.8342 41.6817 33.4339C41.9368 34.0336 42.0415 34.6866 41.9867 35.336C41.9318 35.9854 41.7192 36.6116 41.3672 37.16C41.0152 37.7085 40.5345 38.1627 39.967 38.483C40.0371 39.0252 39.9953 39.5761 39.8441 40.1015C39.693 40.627 39.4357 41.1158 39.0882 41.538C38.7407 41.9601 38.3104 42.3065 37.8238 42.5558C37.3372 42.805 36.8046 42.9519 36.259 42.9873C35.7134 43.0227 35.1664 42.9459 34.6516 42.7616C34.1369 42.5773 33.6654 42.2894 33.2663 41.9158C32.8671 41.5421 32.5488 41.0906 32.331 40.5891C32.1133 40.0876 32.0006 39.5467 32 39V26Z" stroke="white" stroke-width="2" stroke-linecap="round" stroke-linejoin="round"/>
<path d="M35 34C34.1604 33.7047 33.4273 33.167 32.8933 32.455C32.3593 31.743 32.0485 30.8887 32 30C31.9515 30.8887 31.6407 31.743 31.1067 32.455C30.5727 33.167 29.8396 33.7047 29 34" stroke="white" stroke-width="2" stroke-linecap="round" stroke-linejoin="round"/>
<path d="M37.5991 27.5C37.8411 27.0806 37.978 26.6088 37.9981 26.125" stroke="white" stroke-width="2" stroke-linecap="round" stroke-linejoin="round"/>
<path d="M26.0029 26.125C26.0227 26.6087 26.1593 27.0805 26.4009 27.5" stroke="white" stroke-width="2" stroke-linecap="round" stroke-linejoin="round"/>
<path d="M23.4771 31.896C23.66 31.747 23.8558 31.6145 24.0621 31.5" stroke="white" stroke-width="2" stroke-linecap="round" stroke-linejoin="round"/>
<path d="M39.938 31.5C40.1443 31.6145 40.34 31.747 40.523 31.896" stroke="white" stroke-width="2" stroke-linecap="round" stroke-linejoin="round"/>
<path d="M26 39C25.3108 39.0003 24.6332 38.8226 24.033 38.484" stroke="white" stroke-width="2" stroke-linecap="round" stroke-linejoin="round"/>
<path d="M39.967 38.484C39.3667 38.8226 38.6892 39.0003 38 39" stroke="white" stroke-width="2" stroke-linecap="round" stroke-linejoin="round"/>
<path d="M40.5 18H47.5" stroke="white" stroke-width="2" stroke-linecap="round" stroke-linejoin="round"/>
<path d="M44 14.5V21.5" stroke="white" stroke-width="2" stroke-linecap="round" stroke-linejoin="round"/>
</g>
<defs>
<filter id="filter0_d_45_517" x="16" y="10" width="38" height="41" filterUnits="userSpaceOnUse" color-interpolation-filters="sRGB">
<feFlood flood-opacity="0" result="BackgroundImageFix"/>
<feColorMatrix in="SourceAlpha" type="matrix" values="0 0 0 0 0 0 0 0 0 0 0 0 0 0 0 0 0 0 127 0" result="hardAlpha"/>
<feOffset dy="2"/>
<feGaussianBlur stdDeviation="2"/>
<feComposite in2="hardAlpha" operator="out"/>
<feColorMatrix type="matrix" values="0 0 0 0 0 0 0 0 0 0 0 0 0 0 0 0 0 0 0.25 0"/>
<feBlend mode="normal" in2="BackgroundImageFix" result="effect1_dropShadow_45_517"/>
<feBlend mode="normal" in="SourceGraphic" in2="effect1_dropShadow_45_517" result="shape"/>
</filter>
</defs>
</svg>
