<svg width="388" height="425" viewBox="0 0 388 425" fill="none" xmlns="http://www.w3.org/2000/svg">
<rect x="19" y="99" width="349" height="34" fill="black"/>
<path d="M19 373H368V390.5H387.5V425H368H19H0V390.5H19V373Z" fill="black"/>
<rect x="172" y="190" width="43" height="126" fill="black"/>
<rect x="281" y="190" width="43" height="126" fill="black"/>
<rect x="63" y="190" width="43" height="126" fill="black"/>
<path d="M157.159 151.148C157.073 149.988 157.991 149 159.154 149H226.886C228.034 149 228.946 149.965 228.883 151.111L227.815 170.333C227.638 173.512 225.008 176 221.824 176H164.572C161.43 176 158.82 173.576 158.588 170.443L157.159 151.148Z" fill="black"/>
<path d="M266.159 151.148C266.073 149.988 266.991 149 268.154 149H335.886C337.034 149 337.946 149.965 337.883 151.111L336.815 170.333C336.638 173.512 334.008 176 330.824 176H273.572C270.43 176 267.82 173.576 267.588 170.443L266.159 151.148Z" fill="black"/>
<path d="M48.1591 151.148C48.0732 149.988 48.9909 149 50.1536 149H117.886C119.034 149 119.946 149.965 119.883 151.111L118.815 170.333C118.638 173.512 116.008 176 112.824 176H55.572C52.4302 176 49.8205 173.576 49.5884 170.443L48.1591 151.148Z" fill="black"/>
<path d="M119.841 354.852C119.927 356.012 119.009 357 117.846 357L50.1142 357C48.966 357 48.0536 356.035 48.1173 354.889L49.1852 335.667C49.3618 332.488 51.9915 330 55.1759 330L112.428 330C115.57 330 118.18 332.424 118.412 335.557L119.841 354.852Z" fill="black"/>
<path d="M228.841 353.852C228.927 355.012 228.009 356 226.846 356L159.114 356C157.966 356 157.054 355.035 157.117 353.889L158.185 334.667C158.362 331.488 160.992 329 164.176 329L221.428 329C224.57 329 227.18 331.424 227.412 334.557L228.841 353.852Z" fill="black"/>
<path d="M337.841 353.852C337.927 355.012 337.009 356 335.846 356L268.114 356C266.966 356 266.054 355.035 266.117 353.889L267.185 334.667C267.362 331.488 269.992 329 273.176 329L330.428 329C333.57 329 336.18 331.424 336.412 334.557L337.841 353.852Z" fill="black"/>
<path d="M3 84H384L193.5 0L3 84Z" fill="black"/>
<path d="M85.6413 128H132.054L195.133 295.918L258.212 128H303.359L308 133.877L281.84 203.983H308V239.666H265.807L258.212 261.075H308V295.918H243.866L212.643 374H175.091L144.712 295.918H81V261.075H130.366L122.349 239.666H81V203.983H108.848L81 133.877L85.6413 128Z" fill="black" stroke="white" stroke-width="8"/>
</svg>
